{
  "accessors": [
    {
      "bufferView": 2,
      "componentType": 5126,
      "count": 2157,
      "max": [
        0.08500482887029648,
        0.3340098261833191,
        0.14526516199111938
      ],
      "min": [
        -0.08273593336343765,
        -1.7002224922180176e-05,
        -0.14577478170394897
      ],
      "type": "VEC3"
    },
    {
      "bufferView": 2,
      "byteOffset": 25884,
      "componentType": 5126,
      "count": 2157,
      "max": [
        0.9994344115257263,
        0.9988377094268799,
        0.9997594952583313
      ],
      "min": [
        -0.999933123588562,
        -0.999999463558197,
        -0.9999428987503052
      ],
      "type": "VEC3"
    },
    {
      "bufferView": 1,
      "componentType": 5126,
      "count": 2157,
      "max": [
        1.0,
        0.9984963536262512
      ],
      "min": [
        0.0,
        0.0
      ],
      "type": "VEC2"
    },
    {
      "bufferView": 0,
      "componentType": 5125,
      "count": 9324,
      "type": "SCALAR"
    }
  ],
  "asset": {
    "extras": {
      "author": "David Wigforss (https://sketchfab.com/dwigfor)",
      "license": "CC-BY-NC-4.0 (http://creativecommons.org/licenses/by-nc/4.0/)",
      "source": "https://sketchfab.com/3d-models/dog-welcome-c0a3257957de43d2bd396f93e292bb2f",
      "title": "Dog (Welcome)"
    },
    "generator": "Sketchfab-15.18.0",
    "version": "2.0"
  },
  "bufferViews": [
    {
      "buffer": 0,
      "byteLength": 37296,
      "name": "floatBufferViews",
      "target": 34963
    },
    {
      "buffer": 0,
      "byteLength": 17256,
      "byteOffset": 37296,
      "byteStride": 8,
      "name": "floatBufferViews",
      "target": 34962
    },
    {
      "buffer": 0,
      "byteLength": 51768,
      "byteOffset": 54552,
      "byteStride": 12,
      "name": "floatBufferViews",
      "target": 34962
    }
  ],
  "buffers": [
    {
      "byteLength": 106320,
      "uri": "welcome.bin"
    }
  ],
  "images": [
    {
      "uri": "textures/MAT_Animal_Mammal_Dog_Welcome_baseColor.png"
    }
  ],
  "materials": [
    {
      "doubleSided": true,
      "name": "MAT_Animal_Mammal_Dog_Welcome",
      "pbrMetallicRoughness": {
        "baseColorTexture": {
          "index": 0
        },
        "metallicFactor": 0.0,
        "roughnessFactor": 0.9577051494623774
      }
    }
  ],
  "meshes": [
    {
      "name": "geo1_MAT_Animal_Mammal_Dog_Welcome_0",
      "primitives": [
        {
          "attributes": {
            "NORMAL": 1,
            "POSITION": 0,
            "TEXCOORD_0": 2
          },
          "indices": 3,
          "material": 0,
          "mode": 4
        }
      ]
    }
  ],
  "nodes": [
    {
      "children": [
        1
      ],
      "matrix": [
        1.0,
        0.0,
        0.0,
        0.0,
        0.0,
        2.220446049250313e-16,
        -1.0,
        0.0,
        0.0,
        1.0,
        2.220446049250313e-16,
        0.0,
        0.0,
        0.0,
        0.0,
        1.0
      ],
      "name": "Sketchfab_model"
    },
    {
      "children": [
        2
      ],
      "matrix": [
        0.009999999776482582,
        0.0,
        0.0,
        0.0,
        0.0,
        0.0,
        0.009999999776482582,
        0.0,
        0.0,
        -0.009999999776482582,
        0.0,
        0.0,
        0.0,
        0.0,
        0.0,
        1.0
      ],
      "name": "mesh.fbx"
    },
    {
      "children": [
        3
      ],
      "name": "RootNode"
    },
    {
      "children": [
        4
      ],
      "name": "geo1"
    },
    {
      "mesh": 0,
      "name": "geo1_MAT_Animal_Mammal_Dog_Welcome_0"
    }
  ],
  "samplers": [
    {
      "magFilter": 9729,
      "minFilter": 9987,
      "wrapS": 10497,
      "wrapT": 10497
    }
  ],
  "scene": 0,
  "scenes": [
    {
      "name": "Sketchfab_Scene",
      "nodes": [
        0
      ]
    }
  ],
  "textures": [
    {
      "sampler": 0,
      "source": 0
    }
  ]
}
